<svg viewBox="0 0 302.95504885993483 308.08865609091475" height="308.08865609091475" width="302.95504885993483" style="width: 302.955px; height: 308.089px; position: absolute; top: 50%; left: 50%; transform: translate(-50%, -50%) scale(0.642672); z-index: 0; cursor: pointer;"><defs id="SvgjsDefs1146"></defs><g id="SvgjsG1147" featurekey="7KWit6-0" transform="matrix(2.6487483780725825,0,0,2.6487483780725825,11.260999915069576,-24.183925634890883)" fill="#111111"><g xmlns="http://www.w3.org/2000/svg"><path d="M50.876,60.435c0.434,1.338,1.669,2.236,3.075,2.236c0.338,0,0.674-0.054,0.996-0.158c0.822-0.266,1.491-0.836,1.884-1.606   c0.393-0.77,0.462-1.646,0.195-2.467l-2.023-6.237c-0.434-1.338-1.668-2.237-3.073-2.237c-0.34,0-0.678,0.054-0.999,0.159   c-0.821,0.266-1.49,0.835-1.883,1.604c-0.394,0.77-0.463,1.646-0.196,2.467L50.876,60.435z M51.719,53.094   c0.021-0.039,0.06-0.092,0.211-0.129c0.083,0,0.183,0.05,0.219,0.162l2.024,6.237c0.024,0.077,0.006,0.14-0.015,0.18   c-0.02,0.039-0.06,0.091-0.136,0.115c-0.11,0.035-0.247-0.008-0.293-0.149l-2.024-6.241C51.681,53.194,51.699,53.132,51.719,53.094   z"></path><path d="M86.396,58.677c-0.001-0.003-0.001-0.006-0.002-0.009l-2.574-7.936c-0.223-0.688-0.998-1.107-1.708-1.013   c-0.568,0.074-1.104,0.144-1.521,0.144c-0.619,0-0.729-0.076-0.908-0.628c-0.211-0.649-0.249-0.766,1.762-1.86   c0.634-0.345,0.932-1.093,0.709-1.78L76.885,29.36c-0.256-0.788-1.099-1.221-1.89-0.964L19.438,46.417   c-0.378,0.123-0.692,0.391-0.873,0.745s-0.214,0.766-0.091,1.145l2.19,6.753c0.001,0.003,0.001,0.005,0.002,0.008   c0.001,0.002,0.002,0.003,0.002,0.004l3.049,9.398c0.123,0.378,0.391,0.692,0.745,0.873c0.354,0.182,0.768,0.213,1.145,0.091   c0.868-0.281,1.524-0.419,2.008-0.419c0.536,0,0.796,0.109,1.014,0.781c0.22,0.677,0.027,0.872-0.128,1.029   c-0.515,0.521-1.712,0.91-2.105,1.038c-0.788,0.256-1.22,1.102-0.964,1.89l1.934,5.96v0.001l1.45,4.475   c0.122,0.378,0.391,0.692,0.745,0.873c0.213,0.109,0.447,0.164,0.682,0.164c0.156,0,0.312-0.024,0.463-0.073l55.558-18.025   c0.379-0.123,0.692-0.391,0.873-0.745s0.214-0.767,0.091-1.145L86.396,58.677z M36.521,51.502c0.788-0.256,1.22-1.102,0.964-1.89   c-0.257-0.788-1.105-1.219-1.89-0.964l-12.536,4.068l-1.268-3.908L56.03,37.702l-2.855,5.243l-12.023,3.9   c-0.788,0.255-1.22,1.102-0.964,1.89c0.206,0.634,0.794,1.038,1.427,1.038c0.153,0,0.31-0.024,0.463-0.074l34.61-11.227   l2.233,6.884c-1.497,0.918-2.923,2.251-2.093,4.805c0.581,1.793,1.847,2.702,3.762,2.702c0.246,0,0.496-0.014,0.755-0.035   l1.732,5.339L30.373,75.265l-0.141-0.433l-0.014-0.043l-1.493-4.602c0.825-0.369,1.438-0.773,1.911-1.255   c0.743-0.753,1.492-2.068,0.846-4.062c-0.598-1.841-1.971-2.855-3.867-2.855c-0.451,0-0.938,0.056-1.484,0.17l-2.146-6.616   L36.521,51.502z M64.457,39.285l2.855-5.243l7.182-2.33l1.268,3.906L64.457,39.285z M60.309,40.631l-2.984,0.968l2.855-5.243   l2.983-0.968L60.309,40.631z"></path><path d="M33.769,30.302c0.296,0.334,0.708,0.504,1.122,0.504c0.354,0,0.71-0.125,0.995-0.379c0.619-0.55,0.676-1.498,0.125-2.117   l-6.48-7.293c-0.549-0.62-1.498-0.676-2.117-0.125c-0.619,0.55-0.676,1.498-0.125,2.117L33.769,30.302z"></path><path d="M22.088,32.932l6.186,2.374c0.177,0.068,0.358,0.1,0.537,0.1c0.603,0,1.172-0.367,1.4-0.963   c0.297-0.773-0.09-1.641-0.863-1.938l-6.186-2.374c-0.773-0.297-1.642,0.089-1.938,0.863   C20.928,31.767,21.314,32.635,22.088,32.932z"></path><path d="M53.303,24.775c0.062,0.008,0.123,0.011,0.185,0.011c0.747,0,1.394-0.557,1.487-1.317l0.906-7.37   c0.101-0.822-0.484-1.571-1.307-1.672c-0.803-0.1-1.57,0.483-1.672,1.306l-0.906,7.37C51.896,23.925,52.48,24.674,53.303,24.775z"></path><path d="M60.132,25.176c0.193,0.083,0.395,0.123,0.592,0.123c0.582,0,1.135-0.34,1.379-0.908l2.521-5.865   c0.327-0.761-0.024-1.643-0.785-1.97c-0.765-0.33-1.645,0.025-1.971,0.786l-2.521,5.865C59.02,23.967,59.371,24.849,60.132,25.176z   "></path><path d="M42.323,25.687c0.186,0.663,0.788,1.096,1.443,1.096c0.134,0,0.271-0.018,0.405-0.056c0.798-0.223,1.264-1.051,1.04-1.849   l-1.544-5.513c-0.223-0.798-1.052-1.263-1.849-1.04c-0.798,0.223-1.264,1.051-1.04,1.849L42.323,25.687z"></path></g></g><g id="SvgjsG1148" featurekey="ewgXDI-0" transform="matrix(4.519991363198417,0,0,4.519991363198417,-2.2599956815992086,200.51285216347316)" fill="#111111"><path d="M5.96 12.879999999999999 c-0.28 -0.72 -0.7 -0.96 -1.16 -0.96 c-0.42 0 -0.84 0.24 -0.84 0.64 c0 0.38 0.24 0.6 0.7 0.76 l1.32 0.46 c1.48 0.54 2.98 1.08 2.98 3.16 c0 2.1 -2.1 3.3 -4.26 3.3 c-1.94 0 -3.76 -1.14 -4.2 -2.96 l2.48 -0.78 c0.26 0.58 0.72 1.24 1.72 1.24 c0.68 0 1.12 -0.44 1.12 -0.84 c0 -0.2 -0.16 -0.46 -0.66 -0.66 l-1.22 -0.44 c-2.08 -0.76 -3.06 -1.82 -3.06 -3.3 c0 -1.94 1.8 -3.08 3.78 -3.08 c2.02 0 3.36 1.1 3.96 2.76 z M17.78 20 l-3.38 -4.04 l-0.66 0.7 l0 3.34 l-3.16 0 l0 -3.78 l0 -10.36 l3.16 0 l0 6.94 l2.94 -3.2 l3.78 0 l-4.12 4.34 l5.04 6.06 l-3.6 0 z M29.48 9.44 c0.28 0 0.56 0 0.82 0.06 l0 3.02 c-0.24 -0.06 -0.52 -0.06 -0.72 -0.06 c-1.92 0 -3.46 1.38 -3.62 3.3 l0 4.24 l-3.16 0 l0 -10.4 l3.16 0 l0 2.54 c0.48 -1.56 1.68 -2.7 3.52 -2.7 z M39.400000000000006 9.6 l3.16 0 l0 10.4 l-3.16 0 l0 -1.04 c-0.14 0.36 -1.08 1.24 -2.68 1.24 c-2.38 0 -5.12 -1.7 -5.12 -5.42 c0 -3.58 2.74 -5.36 5.12 -5.36 c1.6 0 2.54 0.92 2.68 1.14 l0 -0.96 z M37.18 17.42 c1.3 0 2.36 -0.9 2.36 -2.64 c0 -1.68 -1.06 -2.58 -2.36 -2.58 c-1.36 0 -2.52 0.92 -2.52 2.58 c0 1.72 1.16 2.64 2.52 2.64 z M50.44 9.42 c2.38 0 5.12 1.78 5.12 5.36 c0 3.72 -2.74 5.42 -5.12 5.42 c-1.6 0 -2.54 -0.88 -2.68 -1.24 l0 4.84 l-3.16 0 l0 -6.02 l0 -8.18 l3.16 0 l0 0.96 c0.14 -0.22 1.08 -1.14 2.68 -1.14 z M49.98 17.42 c1.36 0 2.52 -0.92 2.52 -2.64 c0 -1.66 -1.16 -2.58 -2.52 -2.58 c-1.3 0 -2.36 0.9 -2.36 2.58 c0 1.74 1.06 2.64 2.36 2.64 z M62.44 9.42 c2.36 0 5.66 1.78 5 6.48 l-7.26 0 c0.36 1.08 1.3 1.64 2.56 1.64 c1.28 0 1.68 -0.28 2.4 -0.58 l1.74 1.68 c-0.92 0.9 -2.16 1.56 -4.26 1.56 c-2.58 0 -5.66 -1.78 -5.66 -5.36 c0 -3.64 3.12 -5.42 5.48 -5.42 z M62.44 12.120000000000001 c-0.9 0 -1.82 0.52 -2.22 1.56 l4.42 0 c-0.32 -1.04 -1.3 -1.56 -2.2 -1.56 z"></path></g></svg>